<svg width="80" height="60" viewBox="0 0 80 60" fill="none" xmlns="http://www.w3.org/2000/svg">
<path d="M39.2496 46.6862C35.4296 49.7586 30.5791 51.5943 25.2971 51.5943C12.9839 51.5943 3 41.6104 3 29.2971C3 16.9839 12.9839 7 25.2971 7C31.1207 7 36.417 9.23355 40.3856 12.8858C35.3002 16.9695 32.0457 23.2436 32.0457 30.2749C32.0457 36.7695 34.8209 42.6122 39.2496 46.6862Z" fill="white"/>
<path d="M47.5943 29.2971C47.5943 36.3285 44.3398 42.6025 39.2496 46.6862C34.8209 42.6121 32.0457 36.7694 32.0457 30.2749C32.0457 23.2435 35.3002 16.9695 40.3856 12.8858C44.8191 16.9599 47.5943 22.8026 47.5943 29.2971Z" fill="#33404F"/>
<path d="M76.64 30.2749C76.64 42.5881 66.6561 52.572 54.3429 52.572C48.5193 52.572 43.223 50.3385 39.2496 46.6862C44.3398 42.6025 47.5943 36.3285 47.5943 29.2971C47.5943 22.8025 44.8191 16.9598 40.3856 12.8858C44.2056 9.81345 49.061 7.97772 54.3429 7.97772C66.6561 7.97772 76.64 17.9616 76.64 30.2749Z" fill="white"/>
</svg>
