<svg width="294" height="380" viewBox="0 0 294 380" fill="none" xmlns="http://www.w3.org/2000/svg">
<g filter="url(#filter0_d_8_105)">
<rect x="50.67" y="50" width="203.333" height="280" rx="40" fill="white"/>
<path d="M163.67 127.333H116.003V175H163.67V127.333Z" fill="#B5C5C3"/>
<path d="M147.17 136.5C131.99 136.5 119.67 147.995 119.67 162.167C119.67 168.052 121.815 173.46 125.372 177.787L119.67 186.917L132.32 183.745C136.61 186.33 141.707 187.833 147.17 187.833C162.35 187.833 174.67 176.338 174.67 162.167C174.67 147.995 162.35 136.5 147.17 136.5Z" fill="#33404F"/>
<path d="M189.337 175C189.337 165.137 183.378 156.593 174.652 152.303C175.917 155.365 176.632 158.683 176.632 162.167C176.632 177.347 163.432 189.667 147.17 189.667C144.127 189.667 141.193 189.227 138.425 188.42C143.265 195.753 151.918 200.667 161.837 200.667C167.3 200.667 172.397 199.163 176.687 196.578L189.337 199.75L183.635 190.62C187.192 186.293 189.337 180.885 189.337 175Z" fill="#33404F"/>
<path d="M153.183 161.158L150.397 164.11C149.7 164.862 149.315 165.632 149.315 166.53V168.657H144.328V166.09C144.328 164.898 144.933 163.78 145.795 162.882L148.563 159.93C149.608 158.848 149.792 157.913 149.792 156.465C149.792 155.163 149.608 154.265 148.857 153.587C148.343 153.147 147.72 152.872 146.84 152.872C145.997 152.872 145.337 153.092 144.823 153.55C143.98 154.302 143.925 155.42 143.925 156.465H138.92C138.92 154.228 139.488 152.322 141.138 151.093C142.458 150.122 144.255 149.333 146.785 149.333C149.278 149.333 151.203 149.938 152.523 151.02C154.173 152.322 154.778 153.972 154.778 156.575C154.778 158.628 154.32 159.967 153.183 161.158ZM143.907 176.118V171.535H149.737V176.118H143.907Z" fill="white"/>
<path d="M139.547 263V241.862H135.782V250.607H125.499V241.862H121.72V263H125.499V253.874H135.782V263H139.547ZM151.119 249.538C153.302 249.538 154.737 251.062 154.811 253.435H147.267C147.428 251.091 148.951 249.538 151.119 249.538ZM154.84 258.591C154.313 259.777 153.067 260.437 151.266 260.437C148.878 260.437 147.34 258.767 147.252 256.101V255.91H158.443V254.738C158.443 249.685 155.704 246.652 151.134 246.652C146.49 246.652 143.605 249.89 143.605 255.046C143.605 260.202 146.446 263.322 151.163 263.322C154.942 263.322 157.594 261.506 158.282 258.591H154.84ZM162.237 263H165.87V240.778H162.237V263ZM179.2 246.711C177.003 246.711 175.143 247.81 174.22 249.626H173.971V246.975H170.47V268.332H174.103V260.568H174.352C175.172 262.268 176.944 263.264 179.244 263.264C183.287 263.264 185.807 260.1 185.807 254.987C185.807 249.846 183.258 246.711 179.2 246.711ZM178.058 260.173C175.582 260.173 174.044 258.195 174.029 254.987C174.044 251.794 175.597 249.802 178.072 249.802C180.563 249.802 182.071 251.75 182.071 254.987C182.071 258.225 180.577 260.173 178.058 260.173Z" fill="#33404F"/>
</g>
<defs>
<filter id="filter0_d_8_105" x="0.670013" y="0" width="303.333" height="380" filterUnits="userSpaceOnUse" color-interpolation-filters="sRGB">
<feFlood flood-opacity="0" result="BackgroundImageFix"/>
<feColorMatrix in="SourceAlpha" type="matrix" values="0 0 0 0 0 0 0 0 0 0 0 0 0 0 0 0 0 0 127 0" result="hardAlpha"/>
<feOffset/>
<feGaussianBlur stdDeviation="25"/>
<feColorMatrix type="matrix" values="0 0 0 0 0.2 0 0 0 0 0.25098 0 0 0 0 0.309804 0 0 0 0.15 0"/>
<feBlend mode="normal" in2="BackgroundImageFix" result="effect1_dropShadow_8_105"/>
<feBlend mode="normal" in="SourceGraphic" in2="effect1_dropShadow_8_105" result="shape"/>
</filter>
</defs>
</svg>
