<svg width="304" height="380" viewBox="0 0 304 380" fill="none" xmlns="http://www.w3.org/2000/svg">
<g filter="url(#filter0_d_8_113)">
<rect x="50" y="50" width="203.333" height="280" rx="40" fill="white"/>
<path d="M164.833 127.333H117.167V175H164.833V127.333Z" fill="#B5C5C3"/>
<path d="M152.018 193.205C136.618 182.847 127.177 165.357 127.177 146.657C127.177 146.547 127.177 146.437 127.177 146.327C135.867 145.923 144.337 143.705 152.018 139.855V133.64C143.713 138.352 134.217 140.882 124.518 140.9H121.933L121.768 143.485C121.713 144.53 121.677 145.593 121.677 146.675C121.677 168.418 133.3 188.695 152.018 199.732V193.205Z" fill="#33404F"/>
<path d="M185.935 143.485L185.77 140.9H183.185C173.468 140.882 163.99 138.352 155.685 133.64V139.855C163.367 143.705 171.837 145.942 180.527 146.327C180.527 146.437 180.527 146.547 180.527 146.657C180.527 165.357 171.085 182.847 155.685 193.205V199.713C174.403 188.677 186.027 168.4 186.027 146.657C186.027 145.575 185.99 144.53 185.935 143.485Z" fill="#33404F"/>
<path d="M152.935 154.448L153.852 153.917L154.768 154.448C161.112 158.133 168.39 160.132 175.833 160.297C176.438 157.327 176.768 154.247 176.768 151.093C176.768 150.287 176.75 149.517 176.695 148.747C168.372 148.728 160.58 146.51 153.852 142.605C147.123 146.51 139.332 148.71 131.008 148.747C130.953 149.517 130.935 150.305 130.935 151.093C130.935 154.247 131.247 157.327 131.87 160.297C139.313 160.132 146.573 158.133 152.935 154.448Z" fill="#33404F"/>
<path d="M153.852 158.133C147.435 161.672 140.193 163.652 132.768 163.945C136.105 175.367 143.75 184.955 153.852 190.803C163.953 184.973 171.598 175.385 174.935 163.945C167.51 163.652 160.268 161.672 153.852 158.133Z" fill="#33404F"/>
<path d="M100.659 241.862V263H104.438V256.071H109.023C113.301 256.071 116.289 253.2 116.289 249.011C116.289 244.748 113.403 241.862 109.185 241.862H100.659ZM104.438 245.026H108.188C110.913 245.026 112.451 246.418 112.451 249.011C112.451 251.53 110.869 252.937 108.174 252.937H104.438V245.026ZM120.083 263H123.716V253.742C123.716 251.501 125.356 250.036 127.715 250.036C128.33 250.036 129.297 250.139 129.575 250.241V246.872C129.238 246.77 128.594 246.711 128.066 246.711C126.001 246.711 124.272 247.883 123.833 249.465H123.584V246.975H120.083V263ZM132.607 263H136.226V246.975H132.607V263ZM134.409 244.367C135.742 244.367 136.65 243.518 136.65 242.36C136.65 241.203 135.742 240.354 134.409 240.354C133.091 240.354 132.168 241.203 132.168 242.36C132.168 243.518 133.091 244.367 134.409 244.367ZM154.712 246.975H150.874L147.197 259.367H146.948L143.242 246.975H139.346L145.044 263H149.043L154.712 246.975ZM162.71 260.407C161.099 260.407 159.941 259.602 159.941 258.254C159.941 256.95 160.894 256.218 162.93 256.086L166.548 255.852V257.126C166.548 258.986 164.907 260.407 162.71 260.407ZM161.641 263.264C163.735 263.264 165.493 262.355 166.387 260.803H166.636V263H170.137V252.058C170.137 248.659 167.822 246.652 163.706 246.652C159.897 246.652 157.246 248.454 156.953 251.281H160.381C160.718 250.197 161.86 249.611 163.53 249.611C165.493 249.611 166.548 250.49 166.548 252.058V253.405L162.417 253.654C158.521 253.889 156.338 255.559 156.338 258.459C156.338 261.389 158.55 263.264 161.641 263.264ZM188.359 252.365C187.979 248.996 185.488 246.652 181.372 246.652C176.553 246.652 173.726 249.743 173.726 254.943C173.726 260.217 176.567 263.322 181.387 263.322C185.444 263.322 187.964 261.066 188.359 257.712H184.902C184.521 259.382 183.262 260.275 181.372 260.275C178.896 260.275 177.402 258.312 177.402 254.943C177.402 251.618 178.882 249.699 181.372 249.699C183.364 249.699 184.565 250.812 184.902 252.365H188.359ZM193.589 268.815C197.178 268.815 198.892 267.497 200.254 263.513L206.04 246.975H202.202L198.467 259.484H198.218L194.468 246.975H190.483L196.211 263.073L196.021 263.776C195.552 265.256 194.688 265.842 193.149 265.842C192.9 265.842 192.358 265.827 192.153 265.783V268.757C192.388 268.801 193.369 268.815 193.589 268.815Z" fill="#33404F"/>
</g>
<defs>
<filter id="filter0_d_8_113" x="0" y="0" width="303.333" height="380" filterUnits="userSpaceOnUse" color-interpolation-filters="sRGB">
<feFlood flood-opacity="0" result="BackgroundImageFix"/>
<feColorMatrix in="SourceAlpha" type="matrix" values="0 0 0 0 0 0 0 0 0 0 0 0 0 0 0 0 0 0 127 0" result="hardAlpha"/>
<feOffset/>
<feGaussianBlur stdDeviation="25"/>
<feColorMatrix type="matrix" values="0 0 0 0 0.2 0 0 0 0 0.25098 0 0 0 0 0.309804 0 0 0 0.15 0"/>
<feBlend mode="normal" in2="BackgroundImageFix" result="effect1_dropShadow_8_113"/>
<feBlend mode="normal" in="SourceGraphic" in2="effect1_dropShadow_8_113" result="shape"/>
</filter>
</defs>
</svg>
