<svg width="294" height="380" viewBox="0 0 294 380" fill="none" xmlns="http://www.w3.org/2000/svg">
<g filter="url(#filter0_d_8_97)">
<rect x="40" y="50" width="203.333" height="280" rx="40" fill="white"/>
<path d="M153 129.167H105.333V176.833H153V129.167Z" fill="#B5C5C3"/>
<path d="M136.042 198.833C136.042 187.063 145.593 177.512 157.363 177.512C169.133 177.512 178.667 187.063 178.667 198.833H136.042Z" fill="#33404F"/>
<path d="M157.345 175.385C162.641 175.385 166.933 171.092 166.933 165.797C166.933 160.501 162.641 156.208 157.345 156.208C152.05 156.208 147.757 160.501 147.757 165.797C147.757 171.092 152.05 175.385 157.345 175.385Z" fill="#33404F"/>
<path d="M133.255 164.843C138.55 164.843 142.843 160.551 142.843 155.255C142.843 149.96 138.55 145.667 133.255 145.667C127.96 145.667 123.667 149.96 123.667 155.255C123.667 160.551 127.96 164.843 133.255 164.843Z" fill="#33404F"/>
<path d="M151.515 176.65C147.665 171.095 141.248 167.447 133.988 167.447C122.218 167.428 112.667 176.98 112.667 188.75H135.785C139.048 182.755 144.732 178.3 151.515 176.65Z" fill="#33404F"/>
<path d="M97.2783 263H101.336L93.8213 241.862H89.5732L82.0732 263H85.8965L87.7129 257.595H95.4912L97.2783 263ZM91.4922 245.891H91.7412L94.6123 254.606H88.5918L91.4922 245.891ZM117.552 252.365C117.171 248.996 114.681 246.652 110.564 246.652C105.745 246.652 102.918 249.743 102.918 254.943C102.918 260.217 105.76 263.322 110.579 263.322C114.637 263.322 117.156 261.066 117.552 257.712H114.095C113.714 259.382 112.454 260.275 110.564 260.275C108.089 260.275 106.595 258.312 106.595 254.943C106.595 251.618 108.074 249.699 110.564 249.699C112.557 249.699 113.758 250.812 114.095 252.365H117.552ZM134.866 252.365C134.485 248.996 131.995 246.652 127.879 246.652C123.06 246.652 120.232 249.743 120.232 254.943C120.232 260.217 123.074 263.322 127.894 263.322C131.951 263.322 134.471 261.066 134.866 257.712H131.409C131.028 259.382 129.769 260.275 127.879 260.275C125.403 260.275 123.909 258.312 123.909 254.943C123.909 251.618 125.389 249.699 127.879 249.699C129.871 249.699 131.072 250.812 131.409 252.365H134.866ZM145.252 263.322C150.042 263.322 152.957 260.188 152.957 254.987C152.957 249.802 150.027 246.652 145.252 246.652C140.491 246.652 137.547 249.816 137.547 254.987C137.547 260.188 140.447 263.322 145.252 263.322ZM145.252 260.275C142.718 260.275 141.268 258.342 141.268 254.987C141.268 251.647 142.718 249.699 145.252 249.699C147.771 249.699 149.222 251.647 149.222 254.987C149.222 258.342 147.786 260.275 145.252 260.275ZM170.564 246.975H166.932V256.306C166.932 258.679 165.643 260.129 163.284 260.129C161.116 260.129 160.105 258.928 160.105 256.481V246.975H156.473V257.39C156.473 261.14 158.523 263.322 162.024 263.322C164.471 263.322 166.038 262.282 166.814 260.451H167.063V263H170.564V246.975ZM175.018 263H178.65V253.669C178.65 251.311 180.013 249.816 182.181 249.816C184.393 249.816 185.418 251.047 185.418 253.493V263H189.051V252.629C189.051 248.806 187.103 246.652 183.528 246.652C181.141 246.652 179.529 247.751 178.768 249.538H178.519V246.975H175.018V263ZM194.515 243.049V247.077H191.98V249.978H194.515V258.723C194.515 261.828 195.979 263.073 199.656 263.073C200.359 263.073 201.033 263 201.561 262.897V260.056C201.121 260.1 200.843 260.129 200.33 260.129C198.807 260.129 198.133 259.426 198.133 257.844V249.978H201.561V247.077H198.133V243.049H194.515Z" fill="#33404F"/>
</g>
<defs>
<filter id="filter0_d_8_97" x="-10" y="0" width="303.333" height="380" filterUnits="userSpaceOnUse" color-interpolation-filters="sRGB">
<feFlood flood-opacity="0" result="BackgroundImageFix"/>
<feColorMatrix in="SourceAlpha" type="matrix" values="0 0 0 0 0 0 0 0 0 0 0 0 0 0 0 0 0 0 127 0" result="hardAlpha"/>
<feOffset/>
<feGaussianBlur stdDeviation="25"/>
<feColorMatrix type="matrix" values="0 0 0 0 0.2 0 0 0 0 0.25098 0 0 0 0 0.309804 0 0 0 0.15 0"/>
<feBlend mode="normal" in2="BackgroundImageFix" result="effect1_dropShadow_8_97"/>
<feBlend mode="normal" in="SourceGraphic" in2="effect1_dropShadow_8_97" result="shape"/>
</filter>
</defs>
</svg>
