<svg width="218" height="140" viewBox="0 0 218 140" fill="none" xmlns="http://www.w3.org/2000/svg">
<g filter="url(#filter0_d_11_546)">
<path d="M5 12C5 6.47715 9.47715 2 15 2H192C197.523 2 202 6.47715 202 12V110C202 115.523 197.523 120 192 120H15C9.47715 120 5 115.523 5 110V12Z" fill="#00DDA3"/>
<rect x="5" y="22" width="197" height="22" fill="white"/>
<rect x="5.5" y="1.5" width="197" height="117" rx="8.5" stroke="#33404F" stroke-width="3"/>
<path d="M212 24V120C212 125.523 207.523 130 202 130H19" stroke="#33404F" stroke-width="3" stroke-linecap="round"/>
<path d="M6 22L44 22" stroke="#33404F" stroke-width="3" stroke-linecap="round"/>
<path d="M67 22L202 22" stroke="#33404F" stroke-width="3" stroke-linecap="round"/>
<path d="M5 44L204 44" stroke="#33404F" stroke-width="3"/>
<rect x="17" y="88" width="50" height="8" fill="white"/>
<rect x="17" y="100" width="86" height="8" fill="white"/>
<circle cx="180" cy="98" r="10" fill="#33404F"/>
<path fill-rule="evenodd" clip-rule="evenodd" d="M173.951 107.189C170.968 105.222 169 101.841 169 98C169 94.1593 170.968 90.7784 173.951 88.8109C172.739 88.2891 171.403 88 170 88C164.477 88 160 92.4772 160 98C160 103.523 164.477 108 170 108C171.403 108 172.739 107.711 173.951 107.189Z" fill="#33404F"/>
</g>
<defs>
<filter id="filter0_d_11_546" x="0" y="0" width="217.5" height="139.5" filterUnits="userSpaceOnUse" color-interpolation-filters="sRGB">
<feFlood flood-opacity="0" result="BackgroundImageFix"/>
<feColorMatrix in="SourceAlpha" type="matrix" values="0 0 0 0 0 0 0 0 0 0 0 0 0 0 0 0 0 0 127 0" result="hardAlpha"/>
<feOffset dy="4"/>
<feGaussianBlur stdDeviation="2"/>
<feComposite in2="hardAlpha" operator="out"/>
<feColorMatrix type="matrix" values="0 0 0 0 0 0 0 0 0 0 0 0 0 0 0 0 0 0 0.25 0"/>
<feBlend mode="normal" in2="BackgroundImageFix" result="effect1_dropShadow_11_546"/>
<feBlend mode="normal" in="SourceGraphic" in2="effect1_dropShadow_11_546" result="shape"/>
</filter>
</defs>
</svg>
