<svg width="44" height="60" viewBox="0 0 44 60" fill="none" xmlns="http://www.w3.org/2000/svg">
<path d="M30.811 30.8401H22.55V42.2651H30.811V30.8401Z" fill="white"/>
<path d="M30.811 17.735H22.55V29.84H30.811V17.735Z" fill="white"/>
<path d="M12.8425 16.735H21.45V0H5.5C2.464 0 0 2.24 0 5V6.81L12.8425 16.735Z" fill="white"/>
<path d="M31.9109 17.465V29.84H43.9999V8.125L31.9109 17.465Z" fill="white"/>
<path d="M31.9109 42.5351L43.9999 51.8751V30.8401H31.9109V42.5351Z" fill="white"/>
<path d="M22.5501 16.735H31.1576L44.0001 6.81V5C44.0001 2.24 41.5361 0 38.5001 0H22.5501V16.735Z" fill="white"/>
<path d="M21.45 43.265H12.8425L0 53.19V55C0 57.76 2.464 60 5.5 60H21.45V43.265Z" fill="white"/>
<path d="M31.1575 43.265H22.55V60H38.5C41.536 60 44 57.76 44 55V53.19L31.1575 43.265Z" fill="white"/>
<path d="M12.089 42.5351V30.8401H0V51.8751L12.089 42.5351Z" fill="white"/>
<path d="M21.4498 17.735H13.1888V29.84H21.4498V17.735Z" fill="white"/>
<path d="M21.4498 30.8401H13.1888V42.2651H21.4498V30.8401Z" fill="white"/>
<path d="M12.089 17.465L0 8.125V29.84H12.089V17.465Z" fill="white"/>
</svg>
