<svg width="47" height="54" viewBox="0 0 47 54" fill="none" xmlns="http://www.w3.org/2000/svg">
<path d="M44.0467 38.6134L40.3 36.84L40.34 22.4667C40.34 15.3467 35.8733 9.26671 29.5933 6.85337V6.20004C29.58 2.96004 26.86 0.333374 23.5 0.333374C20.14 0.333374 17.42 2.96004 17.42 6.20004V6.90671C11.2333 9.37337 6.83334 15.4134 6.83334 22.4667L6.79334 36.84L2.96668 38.6C1.68668 39.0934 0.833344 40.3334 0.833344 41.7067V45.1467C0.833344 46.9867 2.32668 48.48 4.16668 48.48H16.82C17.4733 51.56 20.22 53.8934 23.5 53.8934C26.78 53.8934 29.5267 51.5734 30.18 48.48H42.8333C44.6733 48.48 46.1667 46.9867 46.1667 45.1467V41.7067C46.1667 40.3334 45.3133 39.1067 44.0467 38.6134ZM23.5 4.33337C24.42 4.33337 25.1933 4.86671 25.4733 5.60004C24.9267 5.53337 24.38 5.50671 23.8467 5.49337C23.0867 5.49337 22.3133 5.52004 21.54 5.60004C21.8067 4.86671 22.58 4.33337 23.5 4.33337ZM23.5 49.8934C22.46 49.8934 21.5533 49.32 21.06 48.48H25.94C25.4467 49.32 24.54 49.8934 23.5 49.8934ZM42.1667 44.48H4.83334V42.1467L8.66001 40.3734C9.94001 39.88 10.7933 38.6534 10.7933 37.2667L10.8333 22.4667C10.8333 15.44 16.5533 9.72004 23.58 9.72004C30.6067 9.72004 36.3267 15.44 36.3267 22.4667L36.2867 37.2667C36.2867 38.6534 37.1267 39.88 38.4067 40.3867L42.1667 42.1467V44.48Z" fill="white"/>
<path d="M22.1667 13.0533C17.2067 13.0533 13.1801 17.08 13.1801 22.04C13.1801 23.1467 14.0734 24.04 15.1801 24.04C16.2867 24.04 17.1801 23.1467 17.1801 22.04C17.1801 19.2933 19.4201 17.0533 22.1667 17.0533C23.2734 17.0533 24.1667 16.16 24.1667 15.0533C24.1667 13.9467 23.2734 13.0533 22.1667 13.0533Z" fill="white"/>
</svg>
