<svg width="54" height="54" viewBox="0 0 54 54" fill="none" xmlns="http://www.w3.org/2000/svg">
<path d="M51.3333 26.6667C51.3333 33.2933 48.7333 39.3067 44.4667 43.72C40 48.4133 33.6667 51.3333 26.6667 51.3333C19.6667 51.3333 13.3333 48.4133 8.86667 43.72C4.6 39.3067 2 33.2933 2 26.6667C2 13.04 13.04 2 26.6667 2C40.2933 2 51.3333 13.04 51.3333 26.6667Z" stroke="#00DDA3" stroke-width="4" stroke-miterlimit="10"/>
<path d="M26.6667 24.6667C31.4531 24.6667 35.3333 20.7865 35.3333 16C35.3333 11.2136 31.4531 7.33337 26.6667 7.33337C21.8802 7.33337 18 11.2136 18 16C18 20.7865 21.8802 24.6667 26.6667 24.6667Z" stroke="#00DDA3" stroke-width="4" stroke-miterlimit="10"/>
<path d="M44.4667 43.72C40 48.4133 33.6667 51.3333 26.6667 51.3333C19.6667 51.3333 13.3334 48.4133 8.8667 43.72C11.24 36.1466 18.32 30.6666 26.6667 30.6666C35.0134 30.6666 42.0934 36.1466 44.4667 43.72Z" stroke="#00DDA3" stroke-width="4" stroke-miterlimit="10"/>
</svg>
